<?xml version="1.0" encoding="UTF-8" standalone="no"?>
<svg
   data-v-0dd9719b=""
   version="1.0"
   width="100%"
   height="100%"
   viewBox="0 0 168.37998962402344 112.5"
   preserveAspectRatio="xMidYMid meet"
   color-interpolation-filters="sRGB"
   style="margin: auto;"
   id="svg11"
   sodipodi:docname="liquid_c_2.svg"
   inkscape:version="1.3.2 (091e20ef0f, 2023-11-25)"
   xmlns:inkscape="http://www.inkscape.org/namespaces/inkscape"
   xmlns:sodipodi="http://sodipodi.sourceforge.net/DTD/sodipodi-0.dtd"
   xmlns="http://www.w3.org/2000/svg"
   xmlns:svg="http://www.w3.org/2000/svg">
  <sodipodi:namedview
     id="namedview11"
     pagecolor="#ffffff"
     bordercolor="#000000"
     borderopacity="0.25"
     inkscape:showpageshadow="2"
     inkscape:pageopacity="0.0"
     inkscape:pagecheckerboard="0"
     inkscape:deskcolor="#d1d1d1"
     inkscape:zoom="4.6666667"
     inkscape:cx="84.107143"
     inkscape:cy="56.25"
     inkscape:window-width="1920"
     inkscape:window-height="731"
     inkscape:window-x="0"
     inkscape:window-y="0"
     inkscape:window-maximized="1"
     inkscape:current-layer="svg11" />
  <rect
     data-v-0dd9719b=""
     x="0"
     y="0"
     width="100%"
     height="100%"
     fill="#ffffff"
     fill-opacity="0"
     class="background"
     style="display:none;opacity:0"
     id="rect1" />
  <!---->
  <g
     data-v-0dd9719b=""
     class="iconmbgsvg"
     id="g11">
    <g
       fill="#333"
       hollow-target="textNormalTran"
       id="g10">
      <g
         opacity="0.55"
         transform="translate(27.93999481201172,0)"
         id="g5">
        <g
           id="g4">
          <rect
             fill="#333"
             fill-opacity="0"
             stroke-width="2"
             x="0"
             y="0"
             width="112.5"
             height="112.5"
             class="image-rect"
             id="rect2" />
          <svg
             x="0"
             y="0"
             width="112.5"
             height="112.5"
             filtersec="colorsb6360592256"
             class="image-svg-svg primary"
             style="overflow: visible;"
             version="1.1"
             id="svg4">
            <svg
               viewBox="0 0 100 100"
               version="1.1"
               id="svg3">
              <g
                 fill-rule="evenodd"
                 id="g3">
                <path
                   fill="#2e00ab"
                   d="M50 50l25 25-25 25H0l25-25 25-25 25-25 25 25-25 25-25-25z"
                   id="path2" />
                <path
                   fill="#33d9ff"
                   opacity=".8"
                   d="M75 25L50 0H0l25 25 25 25 25 25 25-25-25-25z"
                   id="path3" />
              </g>
            </svg>
          </svg>
          <!---->
        </g>
      </g>
      <g
         transform="translate(0,34.09000015258789)"
         id="g9">
        <g
           data-gra="path-name"
           fill-rule=""
           class="tp-name"
           id="g8">
          <g
             transform="scale(1)"
             id="g7">
            <g
               id="g6">
              <path
                 d="M8.54 0L1.71 0 1.71-34.16 8.54-34.16 8.54 0ZM13.37 0L9.57-6.83 24.6-6.83 24.6 0 13.37 0ZM34.29 0L27.8 0 27.8-24.4 34.29-24.4 34.29 0ZM27.8-28.45L27.8-34.16 34.29-34.16 34.29-28.45 27.8-28.45ZM58.27-24.4L64.86-24.4 64.86 9.76 58.27 9.76 58.27-2.98 58.27-12.1Q58.27-13.52 57.74-14.76 57.2-16.01 56.27-16.94 55.35-17.86 54.1-18.4 52.86-18.94 51.39-18.94L51.39-18.94Q49.98-18.94 48.71-18.4 47.44-17.86 46.49-16.94 45.54-16.01 45-14.76 44.46-13.52 44.46-12.1L44.46-12.1Q44.46-10.64 45-9.37 45.54-8.1 46.49-7.15 47.44-6.2 48.71-5.66 49.98-5.12 51.39-5.12L51.39-5.12Q52.66-5.12 54.03-5.66L54.03-5.66 54.08-5.71 54.08-5.66 56.61-1.22 56.57-1.17Q54.08 0.73 50.51 0.73L50.51 0.73Q47.88 0.73 45.56-0.27 43.24-1.27 41.48-3 39.73-4.73 38.73-7.08 37.73-9.42 37.73-12.1L37.73-12.1Q37.73-14.74 38.73-17.03 39.73-19.33 41.48-21.06 43.24-22.79 45.56-23.79 47.88-24.79 50.51-24.79L50.51-24.79Q53.05-24.79 55.03-23.87 57.01-22.94 58.27-21.08L58.27-21.08 58.27-24.4ZM86.8-24.4L93.49-24.4 93.49 0.15 86.8 0.15 86.8-24.4ZM83.14-6.15L83.24-6.15 85.58-1.9 85.58-1.85Q83.04 0.39 79.29 0.39L79.29 0.39Q73.33 0.39 70.84-2.83L70.84-2.83Q68.55-5.71 68.55-12.01L68.55-12.01 68.55-24.4 75.23-24.4 75.23-12.01Q75.23-10.69 75.31-9.47 75.38-8.25 75.84-7.32 76.31-6.39 77.28-5.83 78.26-5.27 80.07-5.27L80.07-5.27Q80.9-5.27 81.68-5.52 82.46-5.76 83.14-6.15L83.14-6.15ZM103.91 0L97.42 0 97.42-24.4 103.91-24.4 103.91 0ZM97.42-28.45L97.42-34.16 103.91-34.16 103.91-28.45 97.42-28.45ZM127.6-34.16L134.05-34.16 134.05 0 127.55 0 127.6-12.25Q127.6-13.62 127.04-14.84 126.48-16.06 125.58-16.96 124.67-17.86 123.43-18.38 122.19-18.89 120.77-18.89L120.77-18.89Q119.35-18.89 118.13-18.38 116.91-17.86 116.01-16.94 115.11-16.01 114.57-14.79 114.03-13.57 114.03-12.15L114.03-12.15Q114.03-10.74 114.57-9.52 115.11-8.3 116.01-7.39 116.91-6.49 118.13-5.95 119.35-5.42 120.77-5.42L120.77-5.42Q121.45-5.42 122.14-5.52 122.82-5.61 123.41-5.91L123.41-5.91 123.45-5.91 123.5-5.91 125.89-1.51 125.85-1.46Q123.45 0.39 119.99 0.39L119.99 0.39Q117.35 0.39 115.06-0.59 112.77-1.56 111.06-3.27 109.35-4.98 108.35-7.27 107.35-9.57 107.35-12.15L107.35-12.15Q107.35-14.74 108.35-17.03 109.35-19.33 111.06-21.04 112.77-22.74 115.06-23.72 117.35-24.7 119.99-24.7L119.99-24.7Q124.97-24.7 127.6-20.99L127.6-20.99 127.6-34.16ZM164.38-11.52L170.09-7.86Q168.92-6 167.33-4.49 165.75-2.98 163.84-1.88 161.94-0.78 159.74-0.2 157.55 0.39 155.2 0.39L155.2 0.39Q151.59 0.39 148.39-0.98 145.2-2.34 142.83-4.71 140.46-7.08 139.1-10.27 137.73-13.47 137.73-17.08L137.73-17.08Q137.73-20.69 139.1-23.89 140.46-27.09 142.83-29.45 145.2-31.82 148.39-33.19 151.59-34.56 155.2-34.56L155.2-34.56Q157.55-34.56 159.74-33.97 161.94-33.38 163.84-32.29 165.75-31.19 167.33-29.67 168.92-28.16 170.09-26.31L170.09-26.31 164.38-22.65Q163.01-25.28 160.62-26.87 158.23-28.45 155.2-28.45L155.2-28.45Q153.06-28.45 151.15-27.55 149.25-26.65 147.83-25.11 146.42-23.57 145.59-21.5 144.76-19.43 144.76-17.08L144.76-17.08Q144.76-14.74 145.59-12.67 146.42-10.59 147.83-9.05 149.25-7.52 151.15-6.61 153.06-5.71 155.2-5.71L155.2-5.71Q158.23-5.71 160.62-7.3 163.01-8.88 164.38-11.52L164.38-11.52Z"
                 transform="translate(-1.7100000381469727, 34.560001373291016)"
                 id="path5"
                 style="opacity:1;fill:#ffffff;fill-opacity:1" />
            </g>
            <!---->
            <!---->
            <!---->
            <!---->
            <!---->
            <!---->
            <!---->
          </g>
        </g>
        <!---->
      </g>
    </g>
  </g>
  <defs
     v-gra="od"
     id="defs11" />
</svg>
